<svg xmlns="http://www.w3.org/2000/svg" fill="none" viewBox="-18.285 -18.285 512 512" id="Ok-Hand--Streamline-Core.svg" height="512" width="512"><desc>Ok Hand Streamline Icon: https://streamlinehq.com</desc><g id="ok-hand"><path id="Subtract" fill="#d7e0ff" fill-rule="evenodd" d="M343.48459128571426 315.50927130714285c6.224737071428571 -1.4368173785714284 12.225342857142856 -4.284303485714285 17.512803642857143 -8.59203887857143 18.47385142857143 -15.050076242857143 19.886557714285715 -49.312957971428574 4.835802285714285 -67.7868094 -27.217688314285713 -33.4084661 -67.65436818571429 -49.70315016428572 -107.62240991428571 -47.48662758571428l44.828973885714284 -102.78117414285714c10.731813471428572 -24.605200464285716 -0.7800447928571429 -53.23050117142857 -25.558777207142857 -63.55490509214285 -20.321915757142854 -8.467578096428571 -43.73344732857142 -2.0516502464285713 -55.97101552857143 16.249620092142855 -9.37921512142857 14.026543371428572 -20.95118132142857 32.07148902142857 -32.84881707142857 52.43177877142857v-26.51710825C185.37796763571427 40.8299284 160.90113327142856 22.046538082142856 134.31678563571427 25.768611633571425 112.51390542857143 28.821279745 95.62561305 46.25798062857143 94.40477672857142 68.23982627142856c-3.2105108714285713 57.78919568571428 -4.570919857142857 169.40114248571427 25.820263707142853 237.35027727142855h0.3935881214285714c-2.6101107 85.12166638571428 1.492510607142857 146.36384224285715 1.492510607142857 146.36384224285715l182.01531916428573 0c15.777823735714286 -4.737320357142857 30.90804389285714 -12.585311285714285 44.472401385714285 -23.635662857142854 18.310846857142856 -14.918314214285715 31.551572357142856 -33.915138642857144 39.35881214285714 -54.64049071428571 8.401527285714286 -22.297666999999997 -2.8661637142857144 -47.18438994285714 -25.163830714285712 -55.58421926428571 -6.374157928571428 -2.4009215 -12.958863428571428 -3.1952291928571426 -19.309249857142856 -2.5843016428571426ZM236.97298960714286 354.1070558571429c-15.050076242857143 -18.47453061428571 -12.274923414285714 -45.65112819285714 6.198928014285714 -60.70120443571428 18.473511835714284 -15.050076242857143 45.64976982142857 -12.274583821428571 60.699846064285715 6.198928014285714 9.470226007142857 11.6242635 23.741615828571426 17.032958935714284 37.62620938571428 15.69632145 -13.601373114285714 3.1371588142857143 -25.427015178571427 12.804009085714284 -30.716173928571425 26.845494542857143 -2.578868157142857 6.846191999999999 -6.931429807142857 13.125263928571428 -13.10896347142857 18.15803007142857 -18.473511835714284 15.050755428571428 -45.64976982142857 12.276281785714286 -60.699846064285715 -6.197569642857142Z" clip-rule="evenodd" stroke-width="36.57"></path><path id="Ellipse 305 (Stroke)" stroke="#1e90ff" stroke-linecap="round" stroke-linejoin="round" d="M304.12679792142853 451.9607376428571c15.777823735714286 -4.737320357142857 30.90804389285714 -12.585311285714285 44.47206179285714 -23.639058785714287 18.310846857142856 -14.914918285714284 31.551572357142856 -33.911742714285715 39.35881214285714 -54.63709478571428 8.401527285714286 -22.301062928571426 -2.8661637142857144 -47.185408721428566 -25.163830714285712 -55.585238042857135 -6.374157928571428 -2.4009215 -12.958863428571428 -3.1952291928571426 -19.309249857142856 -2.5843016428571426 6.224737071428571 -1.4371569714285715 12.225342857142856 -4.284303485714285 17.512803642857143 -8.59203887857143 18.47385142857143 -15.050076242857143 19.886557714285715 -49.312957971428574 4.835802285714285 -67.7868094 -27.21734872142857 -33.4084661 -67.65402859285714 -49.70315016428572 -107.62207032142857 -47.48662758571428l44.828973885714284 -102.78117414285714c10.731813471428572 -24.605200464285716 -0.7800447928571429 -53.23050117142857 -25.558777207142857 -63.55490509214285v0C257.1594078142857 16.845877230714283 233.74787624285713 23.261805080714286 221.51030804285713 41.563109378571426 187.85427875 91.89552510714284 125.9651785 193.96457302857144 122.11045997857143 269.11375557142856c-5.3112322857142855 103.548654 0.0010187785714285715 182.84698207142856 0.0010187785714285715 182.84698207142856" stroke-width="36.57"></path><path id="Ellipse 305 (Stroke)_2" fill-rule="evenodd" stroke="#1e90ff" stroke-linecap="round" stroke-linejoin="round" d="M243.1722572142857 293.40585142142857c-18.473511835714284 15.050076242857143 -21.248664664285712 42.22667382142857 -6.198588421428571 60.70120443571428 15.050076242857143 18.47385142857143 42.22633422857143 21.24832507142857 60.699846064285715 6.197569642857142 6.177533664285714 -5.032766142857143 10.530095314285715 -11.311838071428571 13.10896347142857 -18.15803007142857 5.2891587499999995 -14.041485457142857 17.11446122142857 -23.708335728571427 30.71549474285714 -26.845494542857143 -13.88391437142857 1.3366374857142855 -28.15530419285714 -4.07205795 -37.6255302 -15.69632145 -15.050076242857143 -18.473511835714284 -42.22633422857143 -21.249004257142857 -60.70018565714285 -6.198928014285714Z" clip-rule="evenodd" stroke-width="36.57"></path><path id="Vector 529" stroke="#1e90ff" stroke-linecap="round" stroke-linejoin="round" d="M258.4882346642857 191.73412714285712c-8.675918314285713 1.0276079857142857 -29.314674207142858 4.863309307142857 -42.46201167142857 11.98457152142857" stroke-width="36.57"></path><path id="Ellipse 305 (Stroke)_3" stroke="#1e90ff" stroke-linecap="round" stroke-linejoin="round" d="M120.2260592142857 305.59621621428573c-30.39118356428571 -67.94947437857144 -29.030774578571428 -179.56108158571428 -25.8206033 -237.35027727142855 1.2211759142857141 -21.98184564285714 18.109468292857144 -39.418716322857136 39.9123485 -42.47138443428571 26.584347635714284 -3.722073551428571 51.061182 15.06114697 54.344365742857136 41.70322539142857l0 27.117848014285713" stroke-width="36.57"></path></g></svg>